<?xml version="1.0" encoding="UTF-8" standalone="no"?>
<!-- Created with Inkscape (http://www.inkscape.org/) -->

<svg
   width="70mm"
   height="50.000004mm"
   viewBox="0 0 70 50.000004"
   version="1.1"
   id="svg5"
   xmlns="http://www.w3.org/2000/svg"
   xmlns:svg="http://www.w3.org/2000/svg">
  <defs
     id="defs2" />
  <g
     id="layer1"
     transform="translate(-10,-9.9999997)">
    <path
       id="path569"
       style="fill:#e69138;stroke-width:0.197916"
       d="m 10,10.000002 c 16.666667,0 33.333333,0 50,0 C 51.666666,26.666671 43.333333,43.333332 35.000001,60.000001 26.666667,43.333332 18.333333,26.666671 10,10.000002 Z" />
    <path
       id="path623"
       style="fill:#00234b;stroke-width:0.206509"
       d="M 55.000001,60 C 46.666667,43.333333 38.333333,26.666666 30,9.9999992 c 16.666667,0 33.333335,0 50.000002,0 C 71.666667,26.666666 63.333333,43.333333 55.000001,60 Z" />
    <path
       id="path569-4"
       style="fill:#950952;fill-opacity:1;stroke-width:0.197916"
       d="M 30,10 C 34.99984,19.999921 40.000091,29.999637 44.999602,39.999722 49.999993,29.999991 54.999653,19.999894 59.999719,10 49.999813,10 39.999906,10 30,10 Z" />
  </g>
</svg>
